<svg width="24" height="24" viewBox="0 0 24 24" fill="none" xmlns="http://www.w3.org/2000/svg">
<g clip-path="url(#clip0_1505_405)">
<path d="M24 12C24 9.81384 23.4151 7.76447 22.3937 5.99916L21.7215 5.73952L18.5344 2.45578L18.0008 1.60627C16.2356 0.584906 14.1862 0 12 0L11.2748 0.403453L10.3757 0.625922L9.63295 1.12781L8.55586 2.18212V2.43797L7.78988 2.89036L5.82244 5.5125L4.25667 8.88638L4.03125 12.2534L4.61072 15.6471L6.44977 19.3332L7.81397 21.1079L8.55581 21.562L8.81602 22.2547L10.6752 23.6793L11.6447 23.9945C11.7628 23.9979 11.8811 24 12 24L13.0132 23.3413L16.7798 22.1611L18.0008 22.3937C19.8217 21.3401 21.3401 19.8218 22.3937 18.0008L22.3815 16.9348L23.3473 12.8141L24 12Z" fill="#FFF1AF"/>
<path d="M4.72645 12C4.72645 7.21788 7.14952 3.00171 10.8349 0.512268L6.41358 1.60624H5.99916C4.1782 2.65985 2.65988 4.17817 1.60627 5.99913L2.03527 6.92256L0.683156 11.1721L0 12C0 14.1861 0.584859 16.2355 1.60627 18.0008L2.29284 18.1903L5.51217 21.5063L5.9992 22.3938C7.66852 23.3596 9.59199 23.9348 11.6448 23.9945C7.50877 21.598 4.72645 17.1241 4.72645 12Z" fill="#FFE559"/>
<path d="M20.5465 12C20.5465 10.4431 20.1284 8.98402 19.3987 7.72833L22.3937 5.99916C21.3401 4.1782 19.8217 2.65987 18.0008 1.60627L16.2661 4.61091C15.0188 3.89452 13.5729 3.48483 12.0314 3.48483C12.0209 3.48483 12.0105 3.4852 12 3.4852V0C11.8812 0 11.7628 0.0020625 11.6448 0.00548438L11.1219 0.121781L9.63295 1.12781L8.55586 2.18212V2.43797L7.78988 2.89036L7.19686 3.68067L7.7498 4.63842C6.71452 5.24184 5.81831 6.05752 5.1202 7.02553L4.25662 8.88638L4.03125 12.2534L4.61072 15.6471L6.44977 19.3332L7.20155 20.3112L7.7498 19.3616C8.9993 20.0899 10.4508 20.5092 12 20.5148V24C14.1862 24 16.2356 23.4151 18.0008 22.3937L16.2661 19.3891C17.5642 18.6435 18.6469 17.5657 19.3988 16.2717L22.3937 18.0008C23.4151 16.2356 24 14.1862 24 12H20.5465Z" fill="#FFE559"/>
<path d="M11.6448 0.00549316C9.59193 0.0652119 7.66846 0.640415 5.99915 1.60627L7.33119 3.91346C8.47447 2.32604 9.94513 0.99029 11.6448 0.00549316Z" fill="#FFD500"/>
<path d="M4.72645 12C4.72645 9.77548 5.25159 7.67394 6.18342 5.81122C5.58225 6.3793 5.06367 7.03386 4.64803 7.75531L1.60631 5.99914C0.584859 7.76445 0 9.81383 0 12H3.51619C3.51619 13.5457 3.92808 14.9951 4.64803 16.2447L1.60631 18.0008C2.65992 19.8218 4.17825 21.3401 5.9992 22.3937L7.33125 20.0865C5.69241 17.8109 4.72645 15.0184 4.72645 12Z" fill="#FFD500"/>
<path d="M12 1.83887C10.7909 1.83887 9.63141 2.05051 8.55581 2.43798L7.78983 2.89037L5.82239 5.51251L4.25662 8.88638L4.03125 12.2534L4.61072 15.6471L6.44977 19.3332L7.81397 21.1079L8.55581 21.562C9.63136 21.9495 10.7909 22.1611 12 22.1611C17.6118 22.1611 22.1611 17.6118 22.1611 12C22.1611 6.38818 17.6118 1.83887 12 1.83887Z" fill="#FFD500"/>
<path d="M4.72646 12C4.72646 8.29202 6.18334 4.92433 8.55582 2.43799C4.63927 3.84897 1.83887 7.59724 1.83887 12C1.83887 16.4028 4.63927 20.1511 8.55582 21.562C6.18334 19.0757 4.72646 15.708 4.72646 12Z" fill="#FBC700"/>
<path d="M13.0424 11.2232C11.3816 10.7856 10.2217 10.016 10.2217 9.35158C10.2217 8.62145 11.0215 7.80789 12.1693 7.80789C13.3802 7.80789 14.3504 8.76939 14.3785 8.7977L14.7425 9.17561C14.864 9.30175 15.0647 9.30555 15.1908 9.18409L15.9514 8.45167C16.0776 8.33017 16.0814 8.12945 15.9599 8.00331L15.5937 7.62301C15.5443 7.57169 14.5511 6.55722 13.0881 6.22356C12.9452 6.19098 12.845 6.06189 12.845 5.91531V4.56522C12.845 4.39009 12.703 4.24811 12.5279 4.24811H11.472C11.2969 4.24811 11.1549 4.39009 11.1549 4.56522V6.00958C11.1549 6.14547 11.0689 6.26814 10.9396 6.3099C9.47273 6.78367 8.53143 8.05215 8.53143 9.35158C8.53143 11.2627 10.7559 12.3686 12.6116 12.8575C14.1851 13.2721 14.3168 13.9487 14.3168 14.6061C14.3168 15.2436 13.7059 16.192 12.023 16.192C11.5125 16.192 11.0867 16.0845 10.7404 15.9336V16.2305L12.2445 16.9549L12.6309 17.0877V17.631L12.8824 17.9405C12.9255 17.8592 13.0027 17.7977 13.0977 17.7783C15.015 17.3874 16.0069 15.9418 16.0069 14.6061C16.007 12.8554 15.0372 11.7488 13.0424 11.2232Z" fill="#EAB900"/>
<path d="M12.8934 17.1677C12.8934 17.02 12.7914 16.8915 12.6474 16.8589C11.8233 16.6724 11.1924 16.2991 10.7404 15.9337C10.2351 15.7136 9.89923 15.4012 9.71717 15.196C9.61475 15.0806 9.44482 15.0544 9.31386 15.1359L8.40818 15.6995C8.24548 15.8008 8.20948 16.0215 8.33061 16.17C8.69492 16.6166 9.5329 17.449 10.909 17.7603C11.053 17.7929 11.155 17.9214 11.155 18.0691V19.4348C11.155 19.6099 11.2969 19.7519 11.4721 19.7519H12.528C12.7031 19.7519 12.8451 19.6099 12.8451 19.4348V18.0886C12.8451 18.0278 12.863 17.9707 12.8934 17.9219V17.1677Z" fill="#D9AC00"/>
</g>
<defs>
<clipPath id="clip0_1505_405">
<rect width="24" height="24" fill="white"/>
</clipPath>
</defs>
</svg>
