<svg width="32" height="32" viewBox="0 0 32 32" fill="none" xmlns="http://www.w3.org/2000/svg">
<g clip-path="url(#clip0_1505_526)">
<path d="M18.9906 0.280273H17.0183L13.8956 1.82571L11.5454 3.41927L7.35007 7.04102L5.58963 14.7925V20.7896L9.22501 27.7347L14.1102 30.671L17.2437 31.6583L18.9906 31.7198C26.3976 30.3191 32 23.8144 32 16C32 8.18565 26.3976 1.6809 18.9906 0.280273Z" fill="#FAA7B0"/>
<path d="M5.98325 16C5.98325 8.18631 11.5846 1.68194 18.9906 0.28025C18.0216 0.097 17.0222 0 16 0C7.16344 0 0 7.16344 0 16C0 24.8366 7.16344 32 16 32C17.0222 32 18.0216 31.903 18.9906 31.7197C11.5846 30.3181 5.98325 23.8137 5.98325 16Z" fill="#F78B98"/>
<path d="M16.8896 28.8038L21.6864 27.7348H22.775C24.8309 26.5452 26.5451 24.831 27.7347 22.7751L27.7388 21.5603L28.9621 16.6992L29.5482 16.0001C29.5482 13.5319 28.8879 11.2181 27.7347 9.22509L26.7086 8.87615L23.3432 5.27047L22.775 4.2654C20.782 3.11222 18.4682 2.4519 16 2.4519L15.3336 2.98472L10.7202 4.13172L7.35001 7.04109L5.58963 14.7925V20.7897L8.50782 26.3647L9.00213 26.8723L9.22494 27.7348C11.2179 28.8879 13.5318 29.5483 15.9999 29.5483L16.8896 28.8038Z" fill="#F27182"/>
<path d="M5.98325 15.9999C5.98325 11.1916 8.10487 6.87971 11.4624 3.94702L10.1826 4.26521H9.225C7.16906 5.45477 5.45488 7.16896 4.26531 9.2249L4.49506 10.3246L3.36831 15.0893L2.45181 15.9999C2.45181 18.4681 3.11213 20.7819 4.26531 22.7749L5.04238 22.8061L9.00219 26.872L9.225 27.7345C10.3688 28.3963 11.6183 28.8953 12.9419 29.2008C8.73981 26.3177 5.98325 21.4811 5.98325 15.9999Z" fill="#ED5469"/>
<path d="M11.9704 21.8936C13.1177 22.6782 14.5051 23.1375 16 23.1375C16.1962 23.1375 16.3904 23.1292 16.5826 23.1137L16 24.2542V29.5483C18.4682 29.5483 20.782 28.888 22.775 27.7348L20.127 23.1483L19.1722 22.3961C20.6961 21.64 21.9119 20.3565 22.5803 18.7839L23.1482 20.1272L27.7346 22.7752C28.8878 20.7822 29.5481 18.4683 29.5481 16.0002H24.254L23.1194 16.6151C23.1373 16.4092 23.1469 16.201 23.1469 15.9906C23.1469 14.4574 22.6639 13.0371 21.8421 11.8731H23.1482L27.7346 9.22509C26.5451 7.16915 24.8309 5.45497 22.7749 4.2654L20.1269 8.85184L20.0358 10.0918C18.8873 9.30453 17.4975 8.84353 15.9999 8.84353C15.7436 8.84353 15.4906 8.85728 15.2414 8.88359L16 7.74603V2.4519C14.6644 2.4519 13.3741 2.64565 12.1553 3.00584L11.5454 3.4194L9.67082 5.03772L11.8729 8.85197L13.1308 9.44347C11.5132 10.1533 10.2087 11.4447 9.48257 13.0535L8.85176 11.8732L6.55394 10.5465L5.58963 14.7927V16.0001H7.74594L8.87307 15.4534C8.85988 15.6307 8.853 15.8098 8.853 15.9905C8.853 17.4871 9.31332 18.876 10.0996 20.024L8.85176 20.1271L6.08038 21.7272L9.22494 27.7348L11.8729 23.1483L11.9704 21.8936Z" fill="#FFE02F"/>
<path d="M6.872 10.7298L4.26531 9.22485C3.11213 11.2179 2.45181 13.5317 2.45181 15.9999H5.98325C5.98325 14.1533 6.2965 12.38 6.872 10.7298Z" fill="#FBC700"/>
<path d="M12.9419 2.79883C11.6183 3.10433 10.3688 3.60339 9.22501 4.2652L9.92713 5.48133C10.8139 4.46589 11.8271 3.5637 12.9419 2.79883Z" fill="#FBC700"/>
<path d="M9.22501 27.7346L9.92713 26.5185C8.59732 24.9958 7.55169 23.2187 6.87201 21.27L4.26532 22.775C5.45488 24.8309 7.16907 26.5451 9.22501 27.7346Z" fill="#FBC700"/>
<path d="M18.0352 7.59155H16.7071L13.1309 9.44337C13.1309 9.44337 11.5776 12.1062 11.5562 12.3637C11.5347 12.6213 10.7621 16.6991 10.7621 16.6991C10.7621 16.6991 11.0625 19.1244 11.1484 19.2317C11.2342 19.339 13.7453 22.4725 13.7453 22.4725L14.9257 23.7817L17.1364 24.3075L18.0352 24.4086C21.8303 23.4932 24.65 20.0762 24.65 16.0001C24.65 11.9239 21.8303 8.50687 18.0352 7.59155Z" fill="#ED5469"/>
<path d="M11.4204 16C11.4204 11.9238 14.2401 8.50685 18.0352 7.59154C17.3824 7.4341 16.7011 7.3501 16 7.3501C11.2228 7.3501 7.35007 11.2228 7.35007 16C7.35007 20.7772 11.2228 24.65 16 24.65C16.7011 24.65 17.3824 24.566 18.0352 24.4085C14.2401 23.4932 11.4204 20.0762 11.4204 16Z" fill="#E63850"/>
<path d="M20.3387 15.4039C20.8105 14.9441 20.5501 14.1429 19.8982 14.0481L18.1106 13.7884C17.8518 13.7507 17.628 13.5882 17.5121 13.3536L17.1911 12.7031H16.6964L16.3583 13.5119L13.815 14.0431L13.4448 14.7353L13.815 15.8298L15.1993 17.1014L14.974 18.8399L15.2507 19.3453L15.6301 19.1459C15.8616 19.0241 16.1383 19.0241 16.3698 19.1459L17.9686 19.9864C18.5518 20.293 19.2333 19.7978 19.122 19.1485L18.8166 17.3682C18.7724 17.1103 18.8578 16.8472 19.0452 16.6646L20.3387 15.4039Z" fill="#FFE02F"/>
<path d="M15.2603 19.1486L15.5657 17.3683C15.6099 17.1104 15.5244 16.8473 15.3371 16.6647L14.0436 15.4039C13.5719 14.9441 13.8322 14.1429 14.4841 14.0481L16.2716 13.7884C16.5305 13.7508 16.7543 13.5882 16.8701 13.3536L17.1911 12.7031L16.7127 11.7338C16.4212 11.1431 15.5787 11.1431 15.2872 11.7338L14.4878 13.3536C14.372 13.5882 14.1482 13.7508 13.8893 13.7884L12.1018 14.0481C11.4499 14.1429 11.1896 14.9441 11.6613 15.4039L12.9548 16.6647C13.1421 16.8473 13.2276 17.1104 13.1834 17.3683L12.878 19.1486C12.7666 19.7979 13.4482 20.2931 14.0313 19.9865L15.2507 19.3454C15.2462 19.2819 15.2487 19.2161 15.2603 19.1486Z" fill="#FBC700"/>
</g>
<defs>
<clipPath id="clip0_1505_526">
<rect width="32" height="32" fill="white"/>
</clipPath>
</defs>
</svg>
